<svg xmlns="http://www.w3.org/2000/svg" viewBox="0 0 800 1100" width="800" height="1100">
  <defs>
    <!-- Density fill gradients -->
    <linearGradient id="fill1" x1="0%" y1="0%" x2="0%" y2="100%">
      <stop offset="0%" style="stop-color:#1a237e;stop-opacity:0.18" />
      <stop offset="100%" style="stop-color:#1a237e;stop-opacity:0.04" />
    </linearGradient>
    <linearGradient id="fill2" x1="0%" y1="0%" x2="0%" y2="100%">
      <stop offset="0%" style="stop-color:#00695c;stop-opacity:0.14" />
      <stop offset="100%" style="stop-color:#00695c;stop-opacity:0.03" />
    </linearGradient>
    <linearGradient id="fill3" x1="0%" y1="0%" x2="0%" y2="100%">
      <stop offset="0%" style="stop-color:#c62828;stop-opacity:0.12" />
      <stop offset="100%" style="stop-color:#c62828;stop-opacity:0.03" />
    </linearGradient>
  </defs>

  <!-- Pure white background -->
  <rect width="800" height="1100" fill="#ffffff" />

  <!-- ============================================ -->
  <!-- TITLE -->
  <!-- ============================================ -->
  <text x="400" y="115" font-family="Georgia, 'Times New Roman', serif" font-size="52" font-weight="bold" fill="#1a237e" text-anchor="middle" letter-spacing="1">
    Biostatistics
  </text>
  <text x="400" y="168" font-family="Georgia, 'Times New Roman', serif" font-size="36" fill="#37474f" text-anchor="middle" letter-spacing="0.5">
    for Clinicians
  </text>

  <!-- Thin accent rule -->
  <line x1="300" y1="192" x2="500" y2="192" stroke="#c62828" stroke-width="2" />

  <!-- Subtitle -->
  <text x="400" y="228" font-family="Helvetica Neue, Arial, sans-serif" font-size="14" fill="#78909c" text-anchor="middle" letter-spacing="1.5">
    AN INTERACTIVE, SELF-PACED COURSE WITH CLINICAL EXAMPLES
  </text>

  <!-- ============================================ -->
  <!-- OVERLAPPING DENSITY CURVES -->
  <!-- ============================================ -->

  <!-- Density curve 1 (blue, centered left ~x=310) -->
  <path d="M100,720
           C100,720 140,718 180,710
           C220,698 250,670 275,635
           C290,612 300,590 308,572
           C312,562 315,555 318,552
           C321,555 324,562 328,572
           C336,590 346,612 361,635
           C386,670 416,698 456,710
           C496,718 536,720 536,720
           Z"
        fill="url(#fill1)" />
  <path d="M100,720
           C100,720 140,718 180,710
           C220,698 250,670 275,635
           C290,612 300,590 308,572
           C312,562 315,555 318,552
           C321,555 324,562 328,572
           C336,590 346,612 361,635
           C386,670 416,698 456,710
           C496,718 536,720 536,720"
        stroke="#1a237e" stroke-width="2.5" fill="none" stroke-linecap="round" />

  <!-- Density curve 2 (teal, centered ~x=400) -->
  <path d="M180,720
           C180,720 220,717 260,708
           C300,695 340,665 370,625
           C385,600 393,578 398,565
           C401,558 403,553 405,550
           C407,553 409,558 412,565
           C417,578 425,600 440,625
           C470,665 510,695 550,708
           C590,717 630,720 630,720
           Z"
        fill="url(#fill2)" />
  <path d="M180,720
           C180,720 220,717 260,708
           C300,695 340,665 370,625
           C385,600 393,578 398,565
           C401,558 403,553 405,550
           C407,553 409,558 412,565
           C417,578 425,600 440,625
           C470,665 510,695 550,708
           C590,717 630,720 630,720"
        stroke="#00695c" stroke-width="2.5" fill="none" stroke-linecap="round" />

  <!-- Density curve 3 (red, centered right ~x=480, shorter/wider) -->
  <path d="M260,720
           C260,720 300,718 350,710
           C390,700 430,678 460,648
           C475,630 483,614 488,604
           C491,598 493,594 495,592
           C497,594 499,598 502,604
           C507,614 515,630 530,648
           C560,678 600,700 640,710
           C690,718 700,720 700,720
           Z"
        fill="url(#fill3)" />
  <path d="M260,720
           C260,720 300,718 350,710
           C390,700 430,678 460,648
           C475,630 483,614 488,604
           C491,598 493,594 495,592
           C497,594 499,598 502,604
           C507,614 515,630 530,648
           C560,678 600,700 640,710
           C690,718 700,720 700,720"
        stroke="#c62828" stroke-width="2.5" fill="none" stroke-linecap="round" />

  <!-- Baseline / x-axis -->
  <line x1="80" y1="720" x2="720" y2="720" stroke="#1a237e" stroke-width="1" opacity="0.15" />

  <!-- ============================================ -->
  <!-- SCATTER DOTS (below density curves, like a rug plot / jittered strip) -->
  <!-- ============================================ -->
  <!-- Blue group dots -->
  <circle cx="245" cy="738" r="3" fill="#1a237e" opacity="0.25" />
  <circle cx="268" cy="741" r="3" fill="#1a237e" opacity="0.2" />
  <circle cx="285" cy="736" r="3" fill="#1a237e" opacity="0.3" />
  <circle cx="298" cy="740" r="3" fill="#1a237e" opacity="0.25" />
  <circle cx="310" cy="735" r="3" fill="#1a237e" opacity="0.35" />
  <circle cx="315" cy="742" r="3" fill="#1a237e" opacity="0.3" />
  <circle cx="322" cy="737" r="3" fill="#1a237e" opacity="0.4" />
  <circle cx="330" cy="741" r="3" fill="#1a237e" opacity="0.3" />
  <circle cx="340" cy="736" r="3" fill="#1a237e" opacity="0.25" />
  <circle cx="355" cy="739" r="3" fill="#1a237e" opacity="0.2" />
  <circle cx="278" cy="745" r="3" fill="#1a237e" opacity="0.15" />
  <circle cx="305" cy="746" r="3" fill="#1a237e" opacity="0.2" />
  <circle cx="335" cy="745" r="3" fill="#1a237e" opacity="0.2" />

  <!-- Teal group dots -->
  <circle cx="350" cy="753" r="3" fill="#00695c" opacity="0.2" />
  <circle cx="370" cy="756" r="3" fill="#00695c" opacity="0.25" />
  <circle cx="385" cy="752" r="3" fill="#00695c" opacity="0.3" />
  <circle cx="395" cy="757" r="3" fill="#00695c" opacity="0.35" />
  <circle cx="405" cy="751" r="3" fill="#00695c" opacity="0.4" />
  <circle cx="410" cy="758" r="3" fill="#00695c" opacity="0.35" />
  <circle cx="420" cy="753" r="3" fill="#00695c" opacity="0.3" />
  <circle cx="435" cy="756" r="3" fill="#00695c" opacity="0.25" />
  <circle cx="450" cy="752" r="3" fill="#00695c" opacity="0.2" />
  <circle cx="465" cy="757" r="3" fill="#00695c" opacity="0.15" />
  <circle cx="378" cy="760" r="3" fill="#00695c" opacity="0.2" />
  <circle cx="415" cy="761" r="3" fill="#00695c" opacity="0.2" />

  <!-- Red group dots -->
  <circle cx="430" cy="768" r="3" fill="#c62828" opacity="0.2" />
  <circle cx="450" cy="771" r="3" fill="#c62828" opacity="0.25" />
  <circle cx="468" cy="767" r="3" fill="#c62828" opacity="0.3" />
  <circle cx="480" cy="772" r="3" fill="#c62828" opacity="0.35" />
  <circle cx="490" cy="766" r="3" fill="#c62828" opacity="0.4" />
  <circle cx="498" cy="773" r="3" fill="#c62828" opacity="0.35" />
  <circle cx="510" cy="768" r="3" fill="#c62828" opacity="0.3" />
  <circle cx="525" cy="771" r="3" fill="#c62828" opacity="0.25" />
  <circle cx="540" cy="767" r="3" fill="#c62828" opacity="0.2" />
  <circle cx="555" cy="770" r="3" fill="#c62828" opacity="0.15" />
  <circle cx="475" cy="776" r="3" fill="#c62828" opacity="0.2" />
  <circle cx="505" cy="777" r="3" fill="#c62828" opacity="0.2" />

  <!-- ============================================ -->
  <!-- SMALL FOREST PLOT (right margin, like marginalia) -->
  <!-- ============================================ -->
  <!-- Null line -->
  <line x1="640" y1="380" x2="640" y2="530" stroke="#b0bec5" stroke-width="0.8" stroke-dasharray="3,3" opacity="0.4" />

  <!-- Study 1 -->
  <line x1="618" y1="400" x2="655" y2="400" stroke="#1a237e" stroke-width="1.2" opacity="0.35" />
  <rect x="632" y="396" width="8" height="8" fill="#1a237e" opacity="0.3" />
  <text x="610" y="404" font-family="Helvetica Neue, Arial, sans-serif" font-size="8" fill="#90a4ae" text-anchor="end" opacity="0.4">Study 1</text>

  <!-- Study 2 -->
  <line x1="625" y1="425" x2="670" y2="425" stroke="#1a237e" stroke-width="1.2" opacity="0.35" />
  <rect x="641" y="421" width="8" height="8" fill="#1a237e" opacity="0.3" />
  <text x="610" y="429" font-family="Helvetica Neue, Arial, sans-serif" font-size="8" fill="#90a4ae" text-anchor="end" opacity="0.4">Study 2</text>

  <!-- Study 3 -->
  <line x1="612" y1="450" x2="648" y2="450" stroke="#1a237e" stroke-width="1.2" opacity="0.35" />
  <rect x="625" y="446" width="8" height="8" fill="#1a237e" opacity="0.3" />
  <text x="610" y="454" font-family="Helvetica Neue, Arial, sans-serif" font-size="8" fill="#90a4ae" text-anchor="end" opacity="0.4">Study 3</text>

  <!-- Study 4 -->
  <line x1="630" y1="475" x2="660" y2="475" stroke="#1a237e" stroke-width="1.2" opacity="0.35" />
  <rect x="639" y="471" width="8" height="8" fill="#1a237e" opacity="0.3" />
  <text x="610" y="479" font-family="Helvetica Neue, Arial, sans-serif" font-size="8" fill="#90a4ae" text-anchor="end" opacity="0.4">Study 4</text>

  <!-- Summary diamond -->
  <polygon points="627,505 640,498 653,505 640,512" fill="#c62828" opacity="0.3" stroke="#c62828" stroke-width="1" />
  <text x="610" y="509" font-family="Helvetica Neue, Arial, sans-serif" font-size="8" fill="#90a4ae" text-anchor="end" opacity="0.4" font-weight="bold">Overall</text>

  <!-- ============================================ -->
  <!-- SMALL CORRELATION SCATTER (left margin) -->
  <!-- ============================================ -->
  <!-- Axes -->
  <line x1="110" y1="530" x2="110" y2="400" stroke="#b0bec5" stroke-width="0.8" opacity="0.3" />
  <line x1="110" y1="530" x2="240" y2="530" stroke="#b0bec5" stroke-width="0.8" opacity="0.3" />

  <!-- Dots with positive trend -->
  <circle cx="122" cy="518" r="2.5" fill="#00695c" opacity="0.3" />
  <circle cx="130" cy="510" r="2.5" fill="#00695c" opacity="0.35" />
  <circle cx="138" cy="515" r="2.5" fill="#00695c" opacity="0.25" />
  <circle cx="145" cy="498" r="2.5" fill="#00695c" opacity="0.35" />
  <circle cx="150" cy="505" r="2.5" fill="#00695c" opacity="0.3" />
  <circle cx="158" cy="490" r="2.5" fill="#00695c" opacity="0.35" />
  <circle cx="165" cy="485" r="2.5" fill="#00695c" opacity="0.3" />
  <circle cx="170" cy="478" r="2.5" fill="#00695c" opacity="0.35" />
  <circle cx="178" cy="470" r="2.5" fill="#00695c" opacity="0.3" />
  <circle cx="185" cy="468" r="2.5" fill="#00695c" opacity="0.25" />
  <circle cx="192" cy="455" r="2.5" fill="#00695c" opacity="0.35" />
  <circle cx="200" cy="448" r="2.5" fill="#00695c" opacity="0.3" />
  <circle cx="210" cy="440" r="2.5" fill="#00695c" opacity="0.35" />
  <circle cx="218" cy="430" r="2.5" fill="#00695c" opacity="0.3" />
  <circle cx="228" cy="420" r="2.5" fill="#00695c" opacity="0.25" />

  <!-- Trend line -->
  <line x1="118" y1="522" x2="232" y2="418" stroke="#00695c" stroke-width="1.2" opacity="0.25" stroke-dasharray="4,3" />

  <!-- r = 0.87 label -->
  <text x="175" y="410" font-family="Georgia, serif" font-size="10" fill="#00695c" text-anchor="middle" font-style="italic" opacity="0.35">r = 0.87</text>

  <!-- ============================================ -->
  <!-- STATISTICAL ANNOTATIONS (pencil marginalia) -->
  <!-- ============================================ -->

  <!-- Mean labels at peaks -->
  <text x="318" y="542" font-family="Georgia, serif" font-size="13" fill="#1a237e" text-anchor="middle" font-style="italic" opacity="0.35">μ₁</text>
  <text x="405" y="540" font-family="Georgia, serif" font-size="13" fill="#00695c" text-anchor="middle" font-style="italic" opacity="0.35">μ₂</text>
  <text x="495" y="582" font-family="Georgia, serif" font-size="13" fill="#c62828" text-anchor="middle" font-style="italic" opacity="0.35">μ₃</text>

  <!-- Dashed mean lines from peaks -->
  <line x1="318" y1="555" x2="318" y2="720" stroke="#1a237e" stroke-width="0.7" stroke-dasharray="3,4" opacity="0.12" />
  <line x1="405" y1="555" x2="405" y2="720" stroke="#00695c" stroke-width="0.7" stroke-dasharray="3,4" opacity="0.12" />
  <line x1="495" y1="595" x2="495" y2="720" stroke="#c62828" stroke-width="0.7" stroke-dasharray="3,4" opacity="0.12" />

  <!-- 95% CI bracket below scatter dots -->
  <line x1="250" y1="798" x2="560" y2="798" stroke="#c62828" stroke-width="1.2" opacity="0.3" />
  <line x1="250" y1="793" x2="250" y2="803" stroke="#c62828" stroke-width="1.2" opacity="0.3" />
  <line x1="560" y1="793" x2="560" y2="803" stroke="#c62828" stroke-width="1.2" opacity="0.3" />
  <text x="405" y="815" font-family="Helvetica Neue, Arial, sans-serif" font-size="11" fill="#c62828" text-anchor="middle" opacity="0.35" letter-spacing="0.5">95% CI</text>

  <!-- p-value notation -->
  <text x="640" y="710" font-family="Georgia, serif" font-size="11" fill="#78909c" font-style="italic" opacity="0.25">p &lt; 0.05</text>

  <!-- Small formula hint -->
  <text x="160" y="710" font-family="Georgia, serif" font-size="10" fill="#78909c" font-style="italic" opacity="0.18">z = (x̄ − μ) / (σ/√n)</text>

  <!-- ============================================ -->
  <!-- BOTTOM: AUTHORS AND INSTITUTION -->
  <!-- ============================================ -->

  <!-- Authors on same line -->
  <text x="400" y="940" font-family="Helvetica Neue, Arial, sans-serif" font-size="18" fill="#1a237e" text-anchor="middle" letter-spacing="0.3">
    Dr. Abhijit Pakhare  &amp;  Dr. Ankur Joshi
  </text>

  <!-- Thin rule -->
  <line x1="280" y1="960" x2="520" y2="960" stroke="#c62828" stroke-width="1" opacity="0.35" />

  <!-- Institution -->
  <text x="400" y="988" font-family="Helvetica Neue, Arial, sans-serif" font-size="13" fill="#78909c" text-anchor="middle" letter-spacing="0.5">
    Department of Community &amp; Family Medicine
  </text>
  <text x="400" y="1008" font-family="Helvetica Neue, Arial, sans-serif" font-size="13" fill="#78909c" text-anchor="middle" letter-spacing="0.5">
    All India Institute of Medical Sciences, Bhopal
  </text>
</svg>